<svg version="1.1" id="Layer_1" xmlns="http://www.w3.org/2000/svg" xmlns:xlink="http://www.w3.org/1999/xlink" x="0px" y="0px" viewBox="0 0 500 500" style="width: 170px;" xml:space="preserve" data-imageid="data-storage-77" imageName="Data Storage" class="illustrations_image">
<style type="text/css">
	.st0_data-storage-77{fill:#68E1FD;}
	.st1_data-storage-77{fill:#231F20;}
	.st2_data-storage-77{fill:#D1D3D4;}
	.st3_data-storage-77{fill:#FFFFFF;}
</style>
<g id="Cloud_data-storage-77">
	<path class="st0_data-storage-77 targetColor" d="M185.9,183.7c-3.7-3.5-6.7-6.3-9.6-9.3c-14.1-14.1-34.6-18.2-52.1-10.4c-18,8.1-28.7,25.6-27.2,45.9&#xA;&#9;&#9;c0.3,4.7-1.2,6.1-5.5,7.2c-29.9,7.5-51.9,34.4-53,64.7c-1.6,41.4,29.7,74.1,71.3,74.1c95.6,0.1,191.3,0.1,286.9,0&#xA;&#9;&#9;c3.7,0,7.4-0.3,11-0.8c30.3-4.2,53.5-30.8,53.9-61.7c0.3-31.6-22.2-59-52.8-63.5c-7-1.1-14.2-1-21.4-1.5&#xA;&#9;&#9;c12.1-63.5-29.9-109.9-72.4-121.3c-23.2-6.2-45.9-5.3-67.9,4.2C214.9,125.2,195.6,150.2,185.9,183.7L185.9,183.7z" style="fill: rgb(89, 194, 244);"/>
	<path class="st1_data-storage-77" d="M222.4,356.7c-37.5,0-75.2,0-112.6,0c-20.3,0-38.8-7.7-52.3-21.7S37,302.1,37.8,281.9&#xA;&#9;&#9;C39,251,61,224.1,91.3,216.5c3.9-1,5.2-2.1,4.9-6.5c-1.4-20.5,9.2-38.3,27.7-46.6c17.7-7.9,38.5-3.8,52.9,10.5c2,1.9,3.9,3.8,6.2,6&#xA;&#9;&#9;l2.6,2.5c10.2-34.5,30.8-58.7,61.2-71.7c21.5-9.2,44.5-10.6,68.4-4.2c22.5,6,43.3,21.1,57.1,41.4c11.1,16.2,22.8,43.2,16,79.9&#xA;&#9;&#9;c2,0.1,4,0.2,6,0.3c4.9,0.1,9.8,0.5,14.7,1.1c30.8,4.6,53.7,32.2,53.4,64.2c-0.3,31.3-23.8,58.1-54.5,62.4&#xA;&#9;&#9;c-3.7,0.5-7.4,0.8-11.1,0.8C340.5,356.7,281.8,356.7,222.4,356.7L222.4,356.7z M142.6,160.9c-6.2,0-12.3,1.3-18,3.9&#xA;&#9;&#9;c-17.9,8-28.2,25.3-26.8,45.2c0.4,5.4-1.7,6.9-6,8C62,225.4,40.4,251.7,39.2,282c-0.8,19.9,6.1,38.4,19.3,52.1s31.4,21.3,51.3,21.3&#xA;&#9;&#9;c96.6,0,195,0,286.9,0c3.6,0,7.3-0.3,10.9-0.8c30-4.1,52.9-30.4,53.3-61c0.3-31.3-22.1-58.3-52.2-62.8c-4.8-0.6-9.7-1-14.5-1.1&#xA;&#9;&#9;c-2.3-0.1-4.5-0.2-6.8-0.3c-0.2,0-0.4-0.1-0.5-0.3c-0.1-0.2-0.2-0.4-0.1-0.6c7-36.7-4.6-63.6-15.6-79.7&#xA;&#9;&#9;c-13.7-20-34.2-34.9-56.3-40.8c-23.6-6.3-46.3-4.9-67.4,4.1c-30.7,13.2-50.6,36.7-60.7,71.9c-0.1,0.2-0.3,0.4-0.5,0.5&#xA;&#9;&#9;c-0.2,0.1-0.5,0-0.7-0.2L182,181c-2.2-2.1-4.2-4-6.2-6C167,166.1,155.1,161,142.6,160.9L142.6,160.9z"/>
</g>
<g id="Files_data-storage-77">
	<rect x="178" y="275.2" class="st2_data-storage-77" width="143.9" height="78.2"/>
	<path class="st1_data-storage-77" d="M322,354.1H178c-0.4,0-0.7-0.3-0.7-0.7l0,0v-78.2c0-0.4,0.3-0.7,0.7-0.7c0,0,0,0,0,0h144&#xA;&#9;&#9;c0.4,0,0.7,0.3,0.7,0.7v0v78.2C322.7,353.8,322.4,354.1,322,354.1z M178.8,352.7h142.5v-76.8H178.7L178.8,352.7L178.8,352.7z"/>
	<rect x="178" y="235.7" class="st1_data-storage-77" width="143.9" height="39.1"/>
	<path class="st1_data-storage-77" d="M322,275.5H178c-0.4,0-0.7-0.3-0.7-0.7l0,0v-39.1c0-0.4,0.3-0.7,0.7-0.7h144c0.4,0,0.7,0.3,0.7,0.7&#xA;&#9;&#9;c0,0,0,0,0,0v39.1C322.7,275.2,322.4,275.5,322,275.5L322,275.5z M178.8,274.1h142.5v-37.7H178.7L178.8,274.1L178.8,274.1z"/>
	<rect x="198" y="244.2" class="st3_data-storage-77" width="116.2" height="55.9"/>
	<path class="st1_data-storage-77" d="M314.2,300.8H198c-0.4,0-0.7-0.3-0.7-0.7l0,0v-55.9c0-0.4,0.3-0.7,0.7-0.7h116.2c0.4,0,0.7,0.3,0.7,0.7&#xA;&#9;&#9;c0,0,0,0,0,0v55.9C314.9,300.5,314.6,300.8,314.2,300.8L314.2,300.8z M198.7,299.4h114.8v-54.5H198.7L198.7,299.4z"/>
	<polygon class="st0_data-storage-77 targetColor" points="309.1,257.3 309.1,247.7 262.1,247.7 255.9,257.3 191.4,257.3 191.4,312.8 316.8,312.8 316.8,257.3 &#9;&#xA;&#9;&#9;" style="fill: rgb(89, 194, 244);"/>
	<path class="st1_data-storage-77" d="M316.8,313.5H191.4c-0.4,0-0.7-0.3-0.7-0.7l0,0v-55.5c0-0.4,0.3-0.7,0.7-0.7c0,0,0,0,0,0h64.2l6-9.2&#xA;&#9;&#9;c0.1-0.2,0.4-0.3,0.6-0.3h47c0.4,0,0.7,0.3,0.7,0.7c0,0,0,0,0,0v8.8h7c0.4,0,0.7,0.3,0.7,0.7v0v55.5&#xA;&#9;&#9;C317.5,313.2,317.2,313.5,316.8,313.5L316.8,313.5L316.8,313.5z M192.1,312.1h124.1V258h-7c-0.4,0-0.7-0.3-0.7-0.7v0v-8.8h-45.9&#xA;&#9;&#9;l-6,9.2c-0.1,0.2-0.4,0.3-0.6,0.3h-63.9L192.1,312.1L192.1,312.1z"/>
	<rect x="185.9" y="263" class="st3_data-storage-77" width="123.8" height="55.9"/>
	<path class="st1_data-storage-77" d="M309.8,319.6H185.9c-0.4,0-0.7-0.3-0.7-0.7l0,0V263c0-0.4,0.3-0.7,0.7-0.7c0,0,0,0,0,0h123.8&#xA;&#9;&#9;c0.4,0,0.7,0.3,0.7,0.7v0v55.9C310.5,319.3,310.2,319.6,309.8,319.6L309.8,319.6z M186.6,318.2h122.4v-54.5H186.6V318.2z"/>
	<polygon class="st0_data-storage-77 targetColor" points="191.4,276 191.4,266.5 241.4,266.5 248.1,276 316.8,276 316.8,331.5 183.2,331.5 183.2,276 &#9;" style="fill: rgb(89, 194, 244);"/>
	<path class="st1_data-storage-77" d="M316.8,332.2H183.2c-0.4,0-0.7-0.3-0.7-0.7l0,0V276c0-0.4,0.3-0.7,0.7-0.7c0,0,0,0,0,0h7.5v-8.8&#xA;&#9;&#9;c0-0.4,0.3-0.7,0.7-0.7c0,0,0,0,0,0h50.1c0.2,0,0.4,0.1,0.6,0.3l6.4,9.2h68.4c0.4,0,0.7,0.3,0.7,0.7v0v55.5&#xA;&#9;&#9;C317.5,331.9,317.2,332.2,316.8,332.2L316.8,332.2L316.8,332.2z M183.8,330.8h132.3v-54.1h-68c-0.2,0-0.4-0.1-0.6-0.3l-6.4-9.2h-49&#xA;&#9;&#9;v8.8c0,0.4-0.3,0.7-0.7,0.7c0,0,0,0,0,0h-7.5v54.1L183.8,330.8z"/>
	<rect x="192.2" y="280.3" class="st3_data-storage-77" width="123.8" height="55.9"/>
	<path class="st1_data-storage-77" d="M316,336.9H192.2c-0.4,0-0.7-0.3-0.7-0.7l0,0v-55.9c0-0.4,0.3-0.7,0.7-0.7c0,0,0,0,0,0H316&#xA;&#9;&#9;c0.4,0,0.7,0.3,0.7,0.7v0v55.9C316.7,336.5,316.4,336.9,316,336.9L316,336.9z M192.9,335.5h122.5V281H192.9L192.9,335.5&#xA;&#9;&#9;L192.9,335.5z"/>
	<rect x="190.2" y="284.8" class="st3_data-storage-77" width="123.8" height="55.9"/>
	<path class="st1_data-storage-77" d="M314.1,341.4H190.2c-0.4,0-0.7-0.3-0.7-0.7l0,0v-55.9c0-0.4,0.3-0.7,0.7-0.7c0,0,0,0,0,0h123.8&#xA;&#9;&#9;c0.4,0,0.7,0.3,0.7,0.7v0v55.9C314.8,341.1,314.5,341.4,314.1,341.4L314.1,341.4z M190.9,340h122.4v-54.5H190.9V340z"/>
	<polygon class="st0_data-storage-77 targetColor" points="308.6,297.9 308.6,288.3 258.5,288.3 251.9,297.9 183.2,297.9 183.2,353.4 316.8,353.4 316.8,297.9 &#9;&#xA;&#9;&#9;" style="fill: rgb(89, 194, 244);"/>
	<path class="st1_data-storage-77" d="M316.8,354.1H183.2c-0.4,0-0.7-0.3-0.7-0.7l0,0v-55.5c0-0.4,0.3-0.7,0.7-0.7c0,0,0,0,0,0h68.4l6.4-9.2&#xA;&#9;&#9;c0.1-0.2,0.3-0.3,0.6-0.3h50.1c0.4,0,0.7,0.3,0.7,0.7v0v8.8h7.5c0.4,0,0.7,0.3,0.7,0.7v0v55.5C317.5,353.8,317.2,354.1,316.8,354.1&#xA;&#9;&#9;L316.8,354.1L316.8,354.1z M183.8,352.7h132.3v-54.1h-7.5c-0.4,0-0.7-0.3-0.7-0.7v0V289h-49l-6.4,9.2c-0.1,0.2-0.3,0.3-0.6,0.3h-68&#xA;&#9;&#9;v54.1L183.8,352.7z"/>
	<rect x="171.6" y="323.1" class="st3_data-storage-77" width="156.8" height="73.6"/>
	<path class="st1_data-storage-77" d="M328.4,397.4H171.6c-0.4,0-0.7-0.3-0.7-0.7l0,0v-73.6c0-0.4,0.3-0.7,0.7-0.7c0,0,0,0,0,0h156.8&#xA;&#9;&#9;c0.4,0,0.7,0.3,0.7,0.7v0v73.6C329.1,397.1,328.8,397.4,328.4,397.4L328.4,397.4L328.4,397.4z M172.3,396h155.4v-72.2H172.3V396z"/>
	<path class="st2_data-storage-77" d="M322.1,390.9H177.9c-0.4,0-0.7-0.3-0.7-0.7l0,0v-60.4c0-0.4,0.3-0.7,0.7-0.7c0,0,0,0,0,0h144.1&#xA;&#9;&#9;c0.4,0,0.7,0.3,0.7,0.7v0v60.4C322.8,390.5,322.5,390.9,322.1,390.9L322.1,390.9z M178.6,389.5h142.7v-59H178.6V389.5z"/>
	<path class="st1_data-storage-77" d="M270.9,369.5h-41.7c-5.2,0-9.1-2.8-9.1-6.5v-4.5h5.6v4.3c1,0.8,2.3,1.1,3.5,1h41.7c1.3,0.1,2.5-0.3,3.5-1v-4.3&#xA;&#9;&#9;h5.6v4.5C280,366.8,276.1,369.5,270.9,369.5z"/>
	<path class="st1_data-storage-77" d="M247.9,318.1c0,0,2.4-0.4,6.2,5h-21.2C232.9,323.1,240.4,320.5,247.9,318.1z"/>
	<path class="st1_data-storage-77" d="M254.1,323.8h-21.2c-0.3,0-0.6-0.2-0.7-0.6c-0.1-0.3,0.1-0.7,0.5-0.8c0.1,0,7.6-2.7,14.9-5h0.1&#xA;&#9;&#9;c0.3,0,3-0.3,6.9,5.3c0.2,0.3,0.2,0.8-0.2,1C254.4,323.8,254.3,323.9,254.1,323.8L254.1,323.8z M237.1,322.4h15.6&#xA;&#9;&#9;c-2.7-3.4-4.4-3.6-4.7-3.6C244,320.1,240,321.5,237.1,322.4L237.1,322.4z"/>
	<path class="st3_data-storage-77" d="M247.9,318.1h-57.6c0,0-14.4,5-12.2,30.2h64.3C242.4,348.3,237.3,327.7,247.9,318.1z"/>
	<path class="st1_data-storage-77" d="M242.4,349h-64.3c-0.4,0-0.7-0.3-0.7-0.6c-2.2-25.4,12-30.8,12.6-31c0.1,0,0.2,0,0.2,0h57.6&#xA;&#9;&#9;c0.3,0,0.5,0.2,0.6,0.5c0.1,0.3,0,0.6-0.2,0.8c-10.1,9.2-5.3,29.4-5.3,29.5c0,0.2,0,0.4-0.1,0.6C242.8,348.9,242.6,349,242.4,349&#xA;&#9;&#9;L242.4,349z M178.7,347.6h62.8c-0.8-3.9-3.5-19.8,4.7-28.8h-55.8C189.1,319.3,177,325,178.7,347.6z"/>
	<path class="st2_data-storage-77" d="M227.4,341.4h-40.9c-0.4,0-0.7-0.3-0.7-0.7c0-0.4,0.3-0.7,0.7-0.7h40.9c0.4,0,0.7,0.3,0.7,0.7&#xA;&#9;&#9;C228.1,341.1,227.8,341.4,227.4,341.4z"/>
	<path class="st2_data-storage-77" d="M232.9,333.9h-46.5c-0.4,0-0.7-0.3-0.7-0.7c0-0.4,0.3-0.7,0.7-0.7h46.5c0.4,0,0.7,0.3,0.7,0.7&#xA;&#9;&#9;C233.6,333.6,233.3,333.9,232.9,333.9C232.9,333.9,232.9,333.9,232.9,333.9z"/>
	<path class="st2_data-storage-77" d="M236.1,325.9h-46.5c-0.4,0-0.7-0.3-0.7-0.7c0-0.4,0.3-0.7,0.7-0.7h46.5c0.4,0,0.7,0.3,0.7,0.7&#xA;&#9;&#9;C236.8,325.6,236.5,325.9,236.1,325.9C236.1,325.9,236.1,325.9,236.1,325.9z"/>
	<path class="st2_data-storage-77" d="M304.8,269h-30.3c-0.4,0-0.7-0.3-0.7-0.7s0.3-0.7,0.7-0.7c0,0,0,0,0,0h30.3c0.4,0,0.7,0.3,0.7,0.7&#xA;&#9;&#9;C305.4,268.7,305.1,269,304.8,269z"/>
	<path class="st2_data-storage-77" d="M237.2,250.9h-30.3c-0.4,0-0.7-0.3-0.7-0.7c0-0.4,0.3-0.7,0.7-0.7h30.3c0.4,0,0.7,0.3,0.7,0.7&#xA;&#9;&#9;C237.9,250.6,237.6,250.9,237.2,250.9z"/>
</g>
<g id="Arrow_In_data-storage-77">
	<path class="st3_data-storage-77" d="M64.8,170.5c0,0,38.4,4.7,74,29.6l-8.5,10.1l37.5,4.2l-6.8-35l-11.3,8.1c0,0-32.2-36.8-69.8-46.6L64.8,170.5z"/>
	<path class="st1_data-storage-77" d="M167.8,215.2L167.8,215.2l-37.6-4.2c-0.4,0-0.7-0.4-0.6-0.8c0-0.1,0.1-0.3,0.2-0.4l8-9.6&#xA;&#9;&#9;c-34.9-24.1-72.7-29-73.1-29.1c-0.2,0-0.4-0.2-0.5-0.4c-0.1-0.2-0.1-0.4,0-0.6l15.2-29.5c0.1-0.3,0.5-0.4,0.8-0.4&#xA;&#9;&#9;c35.1,9.1,65.8,42,69.8,46.3l10.7-7.7c0.2-0.1,0.4-0.2,0.7-0.1c0.2,0.1,0.4,0.3,0.4,0.5l6.8,35c0.1,0.4-0.2,0.7-0.5,0.8&#xA;&#9;&#9;C167.9,215.3,167.9,215.3,167.8,215.2L167.8,215.2z M131.7,209.7l35.3,4l-6.4-32.9l-10.4,7.5c-0.3,0.2-0.7,0.2-0.9-0.1&#xA;&#9;&#9;c-0.3-0.4-32.2-36.5-68.9-46.2L65.8,170c6.3,0.9,41.2,7.1,73.3,29.6c0.2,0.1,0.3,0.3,0.3,0.5c0,0.2,0,0.4-0.2,0.5L131.7,209.7&#xA;&#9;&#9;L131.7,209.7z"/>
</g>
<g id="Arrow_Out_data-storage-77">
	<path class="st3_data-storage-77" d="M328.4,210.3c0,0,18.4-23.6,66.6-40.5l-5.4-10.8l40.7,3.8L412.8,196l-7.8-12.5c0,0-24,7.1-57,49.1L328.4,210.3&#xA;&#9;&#9;L328.4,210.3z"/>
	<path class="st1_data-storage-77" d="M348.1,233.3c-0.2,0-0.4-0.1-0.5-0.2l-19.7-22.3c-0.2-0.3-0.2-0.6,0-0.9c0.2-0.2,18.9-23.7,66.2-40.5&#xA;&#9;&#9;l-5.1-10.1c-0.1-0.2-0.1-0.5,0-0.7c0.1-0.2,0.4-0.3,0.6-0.3l40.7,3.8c0.4,0,0.7,0.4,0.6,0.8c0,0.1,0,0.2-0.1,0.2l-17.5,33.3&#xA;&#9;&#9;c-0.1,0.2-0.3,0.4-0.6,0.4c-0.3,0-0.5-0.1-0.6-0.3l-7.5-12.1c-3.6,1.3-26.2,10.6-56.1,48.7C348.5,233.2,348.4,233.3,348.1,233.3&#xA;&#9;&#9;L348.1,233.3z M329.3,210.3l18.8,21.2c16.9-21.4,31.3-33.4,40.5-39.8c10.1-7,16-8.8,16.3-8.9c0.3-0.1,0.6,0,0.8,0.3l7.1,11.5&#xA;&#9;&#9;l16.4-31.3l-38.4-3.6l4.9,9.7c0.1,0.2,0.1,0.4,0,0.6c-0.1,0.2-0.2,0.3-0.4,0.4C351.4,185.8,332.1,207,329.3,210.3L329.3,210.3z"/>
</g>
</svg>