<?xml version="1.0" encoding="UTF-8"?>
<svg id="folder" xmlns="http://www.w3.org/2000/svg" viewBox="0 0 400 400">
  <path d="M303.857,307.609H67.286c-5.681,0-10.286-4.605-10.286-10.286V92.676c0-5.681,4.605-10.286,10.286-10.286h68.19c4.045,0,7.715,2.371,9.377,6.059l7.787,17.275c1.662,3.688,5.332,6.059,9.377,6.059h141.841c5.681,0,10.286,4.605,10.286,10.286v18.226" fill="none" stroke="#fff" stroke-linecap="round" stroke-linejoin="round" stroke-width="12"/>
  <path d="M303.857,307.609H67.286c-5.681,0-10.286-4.605-10.286-10.286l42.857-147.742c2.422-6.63,5.605-9.286,11.286-9.286h235.571c5.681,0,10.286,4.605,10.286,10.286l-41.857,148.742c-2.698,5.683-5.605,8.286-11.286,8.286Z" fill="none" stroke="#fff" stroke-linecap="round" stroke-linejoin="round" stroke-width="12"/>
</svg>
